<svg width="24" height="24" viewBox="0 0 24 24" fill="none" xmlns="http://www.w3.org/2000/svg">
<path d="M15.7623 17.0839C15.5705 17.2518 15.3307 17.2518 15.1388 17.1559C14.2275 16.4125 14.0837 16.0767 13.5801 15.3573C12.1172 16.8441 11.086 17.2998 9.16758 17.2998C6.91339 17.2998 5.16279 15.9089 5.16279 13.1271C5.16279 10.9688 6.33785 9.506 8.0165 8.76259C9.47933 8.11511 11.5177 7.9952 13.0525 7.82734V7.49161C13.0525 6.84412 13.1004 6.10072 12.7407 5.54916C12.405 5.04556 11.7815 4.85372 11.2299 4.85372C10.2227 4.85372 9.31147 5.3813 9.07166 6.46043C9.0237 6.70024 8.83185 6.94005 8.61602 6.94005L6.0261 6.65228C5.78629 6.60432 5.54648 6.43645 5.61842 6.10072C6.21794 2.95923 9.07166 2 11.6136 2C12.9086 2 14.6112 2.35971 15.6424 3.34293C16.9374 4.56595 16.8175 6.17266 16.8175 7.94724V12.1199C16.8175 13.3669 17.3211 13.9185 17.8247 14.5899C17.9925 14.8537 18.0405 15.1415 17.8247 15.3094L15.7623 17.0839ZM13.0525 10.5612V10.0096C11.11 10.0096 9.07166 10.3933 9.07166 12.6715C9.07166 13.8225 9.67118 14.6139 10.7024 14.6139C11.4697 14.6139 12.1412 14.1583 12.5489 13.3909C13.0765 12.4796 13.0525 11.5923 13.0525 10.5612ZM19.9829 19.53C17.8247 21.1367 14.6592 22 11.9254 22C8.11243 22 4.68317 20.5851 2.09324 18.235C1.87742 18.0432 2.06926 17.8034 2.33305 17.9472C5.11483 19.5779 8.59204 20.5612 12.1652 20.5612C14.5633 20.5612 17.2251 20.0576 19.6712 19.0264C20.0309 18.8585 20.3187 19.2662 19.9829 19.53ZM20.8942 18.4988C20.6064 18.1391 19.0477 18.3309 18.3283 18.4029C18.1364 18.4269 18.1124 18.259 18.3043 18.1151C19.5273 17.2278 21.5896 17.4916 21.8295 17.7794C22.0693 18.0911 21.7575 20.1295 20.5825 21.1127C20.4146 21.2566 20.2227 21.1847 20.3187 20.9928C20.5825 20.3213 21.182 18.8585 20.8942 18.4988Z" fill="black"/>
</svg>
