<svg width="24" height="24" viewBox="0 0 24 24" fill="none" xmlns="http://www.w3.org/2000/svg">
<path d="M19.7344 10.3594C18.8282 10.3594 18.0937 11.0939 18.0937 12H17.7656V10.6875C17.7656 9.78142 17.0311 9.04688 16.125 9.04688C15.2189 9.04688 14.4844 9.78142 14.4844 10.6875V12H14.1562V3.46875C14.1562 2.38143 13.2748 1.5 12.1875 1.5C11.1002 1.5 10.2187 2.38143 10.2187 3.46875V12H9.66208L6.80165 4.71763C6.40404 3.70557 5.26135 3.20748 4.24937 3.60509C3.23735 4.00265 2.7393 5.14535 3.13686 6.15737L6.20339 13.9644L4.92822 14.9845C4.29736 15.4892 4.1278 16.3781 4.52868 17.0796L7.15368 21.6734C7.29717 21.9245 7.5045 22.1332 7.75465 22.2784C8.00481 22.4235 8.28889 22.5 8.57812 22.5H18.4219C19.1832 22.5 19.8445 21.9762 20.0189 21.2352L21.3314 15.657C21.3604 15.5339 21.375 15.4078 21.375 15.2812V12C21.375 11.0939 20.6405 10.3594 19.7344 10.3594Z" fill="black"/>
</svg>
