<svg width="24" height="24" viewBox="0 0 24 24" fill="none" xmlns="http://www.w3.org/2000/svg">
<path fill-rule="evenodd" clip-rule="evenodd" d="M20.3984 15.6406L20.368 15.6059C20.3449 15.577 20.3159 15.5365 20.2812 15.4844C19.6823 14.8594 19.2395 14.2474 18.9531 13.6485C18.4843 12.6068 18.25 11.2656 18.25 9.62502L18.2437 9.32554C18.1854 7.94013 17.7187 6.72486 16.8437 5.67972C15.9062 4.55993 14.7083 3.85681 13.25 3.57035V2.75004C13.25 2.4115 13.1263 2.11853 12.8789 1.87113C12.6315 1.62374 12.3385 1.50004 12 1.50004C11.6614 1.50004 11.3685 1.62374 11.1211 1.87113C10.8737 2.11853 10.75 2.4115 10.75 2.75004V3.57035C9.29165 3.85681 8.09374 4.55993 7.15624 5.67972C6.21874 6.79951 5.75 8.11461 5.75 9.62502L5.74584 9.99831C5.71255 11.4702 5.47956 12.6869 5.04687 13.6485C4.76041 14.2474 4.31771 14.8594 3.71875 15.4844L3.60156 15.6406C3.36719 15.901 3.25 16.194 3.25 16.5195C3.25 16.8451 3.36719 17.1315 3.60156 17.3789C3.83594 17.6263 4.13541 17.75 4.5 17.75H19.5C19.8645 17.75 20.164 17.6263 20.3984 17.3789C20.6328 17.1315 20.75 16.8451 20.75 16.5195C20.75 16.194 20.6328 15.901 20.3984 15.6406ZM10.2422 20.7773C10.737 21.2591 11.3229 21.5 12 21.5C12.6771 21.5 13.263 21.2591 13.7578 20.7773C14.2526 20.2956 14.5 19.7031 14.5 19H9.49999C9.49999 19.7031 9.74738 20.2956 10.2422 20.7773Z" fill="#151515"/>
</svg>
