<svg width="24" height="24" viewBox="0 0 24 24" fill="none" xmlns="http://www.w3.org/2000/svg">
<path d="M20.1818 4.45455C19.1727 4.13636 18.0636 4 17 4C15.2273 4 13.3182 4.36364 12 5.36364C10.6818 4.36364 8.77273 4 7 4C5.22727 4 3.31818 4.36364 2 5.36364V18.6818C2 18.9091 2.22727 19.1364 2.45455 19.1364C2.54545 19.1364 2.59091 19.0909 2.68182 19.0909C3.90909 18.5 5.68182 18.0909 7 18.0909C8.77273 18.0909 10.6818 18.4545 12 19.4545C13.2273 18.6818 15.4545 18.0909 17 18.0909C18.5 18.0909 20.0455 18.3636 21.3182 19.0455C21.4091 19.0909 21.4545 19.0909 21.5455 19.0909C21.7727 19.0909 22 18.8636 22 18.6364V5.36364C21.4545 4.95455 20.8636 4.68182 20.1818 4.45455ZM20.1818 16.7273C19.1818 16.4091 18.0909 16.2727 17 16.2727C15.4545 16.2727 13.2273 16.8636 12 17.6364V7.18182C13.2273 6.40909 15.4545 5.81818 17 5.81818C18.0909 5.81818 19.1818 5.95455 20.1818 6.27273V16.7273Z" fill="black"/>
<path d="M17 9.45455C17.8 9.45455 18.5727 9.53637 19.2727 9.69091V8.30909C18.5545 8.17273 17.7818 8.09091 17 8.09091C15.4545 8.09091 14.0545 8.35455 12.9091 8.84546V10.3545C13.9363 9.77273 15.3636 9.45455 17 9.45455Z" fill="black"/>
<path d="M12.9091 11.2637V12.7728C13.9363 12.1909 15.3636 11.8728 17 11.8728C17.8 11.8728 18.5727 11.9546 19.2727 12.1091V10.7273C18.5545 10.5909 17.7818 10.5091 17 10.5091C15.4545 10.5091 14.0545 10.7819 12.9091 11.2637Z" fill="black"/>
<path d="M17 12.9363C15.4545 12.9363 14.0545 13.2 12.9091 13.6909V15.2C13.9363 14.6182 15.3636 14.3 17 14.3C17.8 14.3 18.5727 14.3818 19.2727 14.5363V13.1545C18.5545 13.0091 17.7818 12.9363 17 12.9363Z" fill="black"/>
</svg>
