<svg width="24" height="24" viewBox="0 0 24 24" fill="none" xmlns="http://www.w3.org/2000/svg">
<path d="M17.2857 5.42049C17.3843 5.51285 17.4633 5.62406 17.518 5.74751C17.5728 5.87097 17.6022 6.00417 17.6046 6.13921C17.607 6.27425 17.5822 6.40839 17.5317 6.53368C17.4813 6.65897 17.4062 6.77286 17.3109 6.86859L13.9001 10.5166C13.7954 10.6186 13.7132 10.7413 13.6584 10.8768C13.6037 11.0123 13.5778 11.1577 13.5822 11.3037V20.4515C13.5859 20.666 13.5104 20.8744 13.3703 21.0368C13.2328 21.198 13.0439 21.3067 12.8354 21.3446H12.6891C12.573 21.3443 12.458 21.3205 12.3514 21.2746C12.2447 21.2286 12.1485 21.1614 12.0685 21.0771C11.9861 20.9952 11.9209 20.8977 11.8768 20.7903C11.8326 20.6828 11.8103 20.5677 11.8112 20.4515V16.1021C11.8116 16.0014 11.7778 15.9036 11.7153 15.8246C11.651 15.7381 11.558 15.6773 11.4529 15.6531H11.3672C11.3061 15.6511 11.2452 15.6613 11.1881 15.6829C11.1309 15.7046 11.0786 15.7373 11.0341 15.7792C10.9897 15.8202 10.9546 15.8702 10.9311 15.9259C10.9076 15.9816 10.8963 16.0417 10.8979 16.1021V20.4515C10.9022 20.667 10.8246 20.8761 10.6809 21.0368C10.5513 21.1922 10.3739 21.3004 10.1764 21.3446H10.025C9.908 21.345 9.79213 21.3215 9.68453 21.2755C9.57694 21.2296 9.47989 21.162 9.39935 21.0771C9.31373 20.9972 9.24573 20.9002 9.19968 20.7925C9.15364 20.6848 9.13056 20.5686 9.13193 20.4515V11.3037C9.13573 11.1573 9.10897 11.0117 9.05337 10.8762C8.99778 10.7406 8.91455 10.6182 8.80901 10.5166L5.3477 6.89382C5.25302 6.79437 5.17889 6.67722 5.12954 6.54908C5.08019 6.42094 5.05659 6.28433 5.06009 6.14707C5.06191 6.0104 5.09147 5.87553 5.14698 5.75064C5.20249 5.62574 5.28279 5.51342 5.38301 5.42049C5.48011 5.32542 5.59542 5.25094 5.722 5.20152C5.84859 5.1521 5.98385 5.12876 6.11968 5.13289C6.25617 5.13423 6.39086 5.1641 6.51512 5.22058C6.63938 5.27706 6.75045 5.35891 6.84121 5.46086L9.14202 7.38325C9.75726 7.89232 10.5308 8.17085 11.3293 8.17085C12.1278 8.17085 12.9014 7.89232 13.5166 7.38325L15.8174 5.46086C15.9087 5.35828 16.0206 5.27606 16.1458 5.21956C16.271 5.16306 16.4067 5.13353 16.544 5.13289C16.6807 5.12807 16.8169 5.15108 16.9444 5.20052C17.0719 5.24996 17.188 5.3248 17.2857 5.42049Z" fill="#1D1D1B"/>
<path d="M11.4024 2.45863C11.7054 2.46262 12.0045 2.52666 12.2825 2.64705C12.5605 2.76744 12.8119 2.94178 13.0221 3.15998C13.2419 3.36921 13.4176 3.62029 13.5389 3.89844C13.6602 4.17659 13.7247 4.4762 13.7285 4.77963C13.745 5.22052 13.6384 5.65729 13.4207 6.04104C13.2015 6.41931 12.8843 6.73136 12.5024 6.94421C12.1159 7.16425 11.6752 7.27092 11.2309 7.252C10.6243 7.23535 10.0483 6.98178 9.62637 6.54561C9.36115 6.28756 9.15999 5.97102 9.03899 5.62131C8.91799 5.2716 8.88051 4.89843 8.92954 4.53165C8.97858 4.16486 9.11277 3.81464 9.32138 3.509C9.52999 3.20336 9.80724 2.95078 10.1309 2.77146C10.5165 2.54863 10.9575 2.44013 11.4024 2.45863Z" fill="#1D1D1B"/>
</svg>
