<svg width="24" height="24" viewBox="0 0 24 24" fill="none" xmlns="http://www.w3.org/2000/svg">
<path fill-rule="evenodd" clip-rule="evenodd" d="M2 2H5.27869L6.21546 3.97183H21.0164C21.2974 3.97183 21.5316 4.07355 21.719 4.277C21.9063 4.48044 22 4.723 22 5.00469C22 5.16119 21.9532 5.31768 21.8595 5.47418L18.2998 11.9531C17.9251 12.6416 17.3474 12.9859 16.5667 12.9859H9.11944L8.22951 14.6291L8.18267 14.77C8.18267 14.9264 8.26073 15.0047 8.41686 15.0047H19.9859V17.0235H7.99532C7.46448 17.0235 7.00391 16.82 6.61358 16.4131C6.22326 16.0063 6.0281 15.5368 6.0281 15.0047C6.0281 14.6917 6.10617 14.3787 6.2623 14.0657L7.62061 11.5775L4.01405 3.97183H2V2ZM16.6136 18.6197C17.0195 18.2128 17.4879 18.0094 18.0187 18.0094C18.5496 18.0094 19.0101 18.2128 19.4005 18.6197C19.7908 19.0266 19.9859 19.4961 19.9859 20.0282C19.9859 20.5603 19.7908 21.0219 19.4005 21.4131C19.0101 21.8044 18.5496 22 18.0187 22C17.4879 22 17.0195 21.8044 16.6136 21.4131C16.2076 21.0219 16.0047 20.5603 16.0047 20.0282C16.0047 19.4961 16.2076 19.0266 16.6136 18.6197ZM7.99532 18.0094C7.46448 18.0094 6.9961 18.2128 6.59016 18.6197C6.21545 19.0266 6.0281 19.4961 6.0281 20.0282C6.0281 20.5603 6.22326 21.0219 6.61358 21.4131C7.0039 21.8044 7.46448 22 7.99532 22C8.52615 22 8.99453 21.8044 9.40047 21.4131C9.8064 21.0219 10.0094 20.5603 10.0094 20.0282C10.0094 19.4961 9.8064 19.0266 9.40047 18.6197C8.99453 18.2128 8.52615 18.0094 7.99532 18.0094Z" fill="#151515"/>
</svg>
