<svg width="24" height="24" viewBox="0 0 24 24" fill="none" xmlns="http://www.w3.org/2000/svg">
<path d="M19.0714 21H4.92857C3.86344 21 3 20.1366 3 19.0714V4.92857C3 3.86344 3.86344 3 4.92857 3H19.0714C20.1366 3 21 3.86344 21 4.92857V19.0714C21 20.1366 20.1366 21 19.0714 21ZM10.8474 17.0601L18.2403 9.66727C18.4913 9.41624 18.4913 9.00919 18.2403 8.75815L17.3312 7.84903C17.0801 7.598 16.6731 7.59796 16.422 7.84903L10.3929 13.8781L7.57799 11.0633C7.32695 10.8122 6.9199 10.8122 6.66883 11.0633L5.75971 11.9724C5.50867 12.2234 5.50867 12.6305 5.75971 12.8815L9.93828 17.0601C10.1894 17.3112 10.5964 17.3112 10.8474 17.0601Z" fill="black"/>
</svg>
