<svg width="24" height="24" viewBox="0 0 24 24" fill="none" xmlns="http://www.w3.org/2000/svg">
<path d="M20.0446 20.75H19.2857V2.9375C19.2857 2.41973 18.878 2 18.375 2H5.625C5.12202 2 4.71429 2.41973 4.71429 2.9375V20.75H3.95536C3.70389 20.75 3.5 20.9599 3.5 21.2188V22H20.5V21.2188C20.5 20.9599 20.2961 20.75 20.0446 20.75ZM8.35714 4.96875C8.35714 4.70988 8.56103 4.5 8.8125 4.5H10.3304C10.5818 4.5 10.7857 4.70988 10.7857 4.96875V6.53125C10.7857 6.79012 10.5818 7 10.3304 7H8.8125C8.56103 7 8.35714 6.79012 8.35714 6.53125V4.96875ZM8.35714 8.71875C8.35714 8.45988 8.56103 8.25 8.8125 8.25H10.3304C10.5818 8.25 10.7857 8.45988 10.7857 8.71875V10.2813C10.7857 10.5401 10.5818 10.75 10.3304 10.75H8.8125C8.56103 10.75 8.35714 10.5401 8.35714 10.2813V8.71875ZM10.3304 14.5H8.8125C8.56103 14.5 8.35714 14.2901 8.35714 14.0312V12.4688C8.35714 12.2099 8.56103 12 8.8125 12H10.3304C10.5818 12 10.7857 12.2099 10.7857 12.4688V14.0312C10.7857 14.2901 10.5818 14.5 10.3304 14.5ZM13.2143 20.75H10.7857V17.4688C10.7857 17.2099 10.9896 17 11.2411 17H12.7589C13.0104 17 13.2143 17.2099 13.2143 17.4688V20.75ZM15.6429 14.0312C15.6429 14.2901 15.439 14.5 15.1875 14.5H13.6696C13.4182 14.5 13.2143 14.2901 13.2143 14.0312V12.4688C13.2143 12.2099 13.4182 12 13.6696 12H15.1875C15.439 12 15.6429 12.2099 15.6429 12.4688V14.0312ZM15.6429 10.2813C15.6429 10.5401 15.439 10.75 15.1875 10.75H13.6696C13.4182 10.75 13.2143 10.5401 13.2143 10.2813V8.71875C13.2143 8.45988 13.4182 8.25 13.6696 8.25H15.1875C15.439 8.25 15.6429 8.45988 15.6429 8.71875V10.2813ZM15.6429 6.53125C15.6429 6.79012 15.439 7 15.1875 7H13.6696C13.4182 7 13.2143 6.79012 13.2143 6.53125V4.96875C13.2143 4.70988 13.4182 4.5 13.6696 4.5H15.1875C15.439 4.5 15.6429 4.70988 15.6429 4.96875V6.53125Z" fill="#151515"/>
</svg>
