<svg width="24" height="24" viewBox="0 0 24 24" fill="none" xmlns="http://www.w3.org/2000/svg">
<path fill-rule="evenodd" clip-rule="evenodd" d="M20.7062 19.4793C20.5758 19.5119 20.4394 19.5293 20.2989 19.5293H3.6673C2.74527 19.5293 2 18.784 2 17.8654V5.66385C2 4.74527 2.74527 4 3.6673 4H20.2989C21.2209 4 21.9662 4.74527 21.9662 5.66385V17.2098L21.2135 16.4572C21.4302 15.9534 21.5502 15.3982 21.5502 14.815C21.5502 13.6497 21.071 12.5962 20.2989 11.8411V11.7646H20.2186C19.4765 11.0762 18.4827 10.6554 17.3906 10.6554C16.2985 10.6554 15.3047 11.0762 14.5626 11.7646H3.6673V17.6574C3.6673 17.7718 3.7609 17.8654 3.87528 17.8654H14.5626C15.3047 18.5538 16.2985 18.9746 17.3906 18.9746C18.1938 18.9746 18.9437 18.747 19.5796 18.3528L20.7062 19.4793ZM13.3142 13.9831C13.2596 14.2519 13.231 14.5301 13.231 14.815C13.231 15.0999 13.2596 15.3781 13.3142 15.6469H4.61021C4.54727 15.6469 4.49577 15.6214 4.49577 15.5902V13.9831H13.3142ZM16.5639 17.8654C16.8274 17.9366 17.1046 17.9746 17.3906 17.9746C17.6766 17.9746 17.9538 17.9366 18.2173 17.8654H16.5639ZM20.2989 15.7514L20.4033 15.6469L20.4317 15.6753C20.5089 15.4018 20.5502 15.1132 20.5502 14.815C20.5502 14.376 20.4607 13.9579 20.2989 13.578V15.7514ZM18.2172 11.7646C17.9537 11.6934 17.6766 11.6554 17.3906 11.6554C17.1046 11.6554 16.8275 11.6934 16.564 11.7646H18.2172ZM3.6673 7.3277H20.2989V5.87183C20.2989 5.75745 20.2053 5.66385 20.0909 5.66385H3.87528C3.7609 5.66385 3.6673 5.75745 3.6673 5.87183V7.3277ZM18.6073 15.6469H16.1739C16.1568 15.6469 16.1427 15.6214 16.1427 15.5902V13.9831H18.6385V15.5902C18.6385 15.6214 18.6244 15.6469 18.6073 15.6469Z" fill="#151515"/>
<path fill-rule="evenodd" clip-rule="evenodd" d="M19.7183 14.815C19.7183 16.1006 18.6762 17.1427 17.3906 17.1427C16.1051 17.1427 15.0629 16.1006 15.0629 14.815C15.0629 13.5295 16.1051 12.4873 17.3906 12.4873C18.6762 12.4873 19.7183 13.5295 19.7183 14.815ZM19.656 17.2526C19.0619 17.8049 18.2657 18.1427 17.3906 18.1427C15.5528 18.1427 14.0629 16.6528 14.0629 14.815C14.0629 12.9772 15.5528 11.4873 17.3906 11.4873C19.2285 11.4873 20.7183 12.9772 20.7183 14.815C20.7183 15.4769 20.5251 16.0937 20.1919 16.612L23 19.4201L22.4118 20.0084L19.656 17.2526Z" fill="#151515"/>
</svg>
