<svg width="24" height="24" viewBox="0 0 24 24" fill="none" xmlns="http://www.w3.org/2000/svg">
<path fill-rule="evenodd" clip-rule="evenodd" d="M20.3299 19.5556C21.2535 19.5556 22 18.809 22 17.8889V5.66667C22 4.74653 21.2535 4 20.3299 4H3.67013C2.74653 4 2 4.74653 2 5.66667V17.8889C2 18.809 2.74653 19.5556 3.67013 19.5556H20.3299ZM20.3299 7.33333H3.67013V5.875C3.67013 5.76042 3.76388 5.66667 3.87846 5.66667H20.1215C20.2361 5.66667 20.3299 5.76042 20.3299 5.875V7.33333ZM3.87846 17.8889H20.1215C20.2361 17.8889 20.3299 17.7951 20.3299 17.6806V11.7778H3.67013V17.6806C3.67013 17.7951 3.76388 17.8889 3.87846 17.8889ZM8.25 16.2222C8.47915 16.2222 8.66667 16.0347 8.66667 15.8056V14.4167C8.66667 14.1875 8.47915 14 8.25 14H5.75C5.52085 14 5.33333 14.1875 5.33333 14.4167V15.8056C5.33333 16.0347 5.52085 16.2222 5.75 16.2222H8.25ZM15.3333 15.8056C15.3333 16.0347 15.1458 16.2222 14.9167 16.2222H10.1944C9.96529 16.2222 9.77778 16.0347 9.77778 15.8056V14.4167C9.77778 14.1875 9.96529 14 10.1944 14H14.9167C15.1458 14 15.3333 14.1875 15.3333 14.4167V15.8056Z" fill="#151515"/>
</svg>
