<svg width="24" height="24" viewBox="0 0 24 24" fill="none" xmlns="http://www.w3.org/2000/svg">
<path fill-rule="evenodd" clip-rule="evenodd" d="M21.4131 4.60819C21.0219 4.20273 20.5603 4 20.0282 4H3.97183C3.43975 4 2.97809 4.20273 2.58685 4.60819C2.19562 5.01365 2 5.48148 2 6.0117V17.9883C2 18.5185 2.19562 18.9864 2.58685 19.3918C2.97809 19.7973 3.43975 20 3.97183 20H20.0282C20.5603 20 21.0219 19.7973 21.4131 19.3918C21.8044 18.9864 22 18.5185 22 17.9883V6.0117C22 5.48148 21.8044 5.01365 21.4131 4.60819ZM20.0282 6.0117V8.02339L12 12.9825L3.97183 8.02339V6.0117L12 11.0175L20.0282 6.0117Z" fill="#151515"/>
</svg>
