<svg width="24" height="24" viewBox="0 0 24 24" fill="none" xmlns="http://www.w3.org/2000/svg">
<path fill-rule="evenodd" clip-rule="evenodd" d="M22.3437 12.1719C22.3437 14.0039 21.8857 15.6992 20.9697 17.2578C20.0537 18.8164 18.8164 20.0537 17.2578 20.9697C15.6992 21.8857 14.0039 22.3437 12.1719 22.3437C10.3398 22.3437 8.64452 21.8857 7.08593 20.9697C5.52734 20.0537 4.29003 18.8164 3.37402 17.2578C2.45801 15.6992 2 14.0039 2 12.1719C2 10.3398 2.45801 8.64452 3.37402 7.08593C4.29003 5.52734 5.52734 4.29003 7.08593 3.37402C8.64452 2.45801 10.3398 2 12.1719 2C14.0039 2 15.6992 2.45801 17.2578 3.37402C18.8164 4.29003 20.0537 5.52734 20.9697 7.08593C21.8857 8.64452 22.3437 10.3398 22.3437 12.1719ZM12.1719 14.2226C11.6523 14.2226 11.208 14.4072 10.8388 14.7763C10.4697 15.1455 10.2851 15.5898 10.2851 16.1093C10.2851 16.6289 10.4697 17.0732 10.8388 17.4423C11.208 17.8115 11.6523 17.9961 12.1719 17.9961C12.6914 17.9961 13.1357 17.8115 13.5049 17.4423C13.874 17.0732 14.0586 16.6289 14.0586 16.1093C14.0586 15.5898 13.874 15.1455 13.5049 14.7763C13.1357 14.4072 12.6914 14.2226 12.1719 14.2226ZM10.6953 13.0332L10.3672 7.45506C10.3672 7.291 10.415 7.16112 10.5107 7.06542C10.6064 6.96971 10.7226 6.92186 10.8594 6.92186H13.4843C13.6211 6.92186 13.7373 6.96971 13.833 7.06542C13.9287 7.16112 13.9765 7.291 13.9765 7.45506L13.6484 13.0332C13.6484 13.1426 13.6006 13.2451 13.5049 13.3408C13.4092 13.4365 13.2929 13.4843 13.1562 13.4843H11.1875C11.0508 13.4843 10.9345 13.4365 10.8388 13.3408C10.7431 13.2451 10.6953 13.1426 10.6953 13.0332Z" fill="#151515"/>
</svg>
