<svg width="24" height="24" viewBox="0 0 24 24" fill="none" xmlns="http://www.w3.org/2000/svg">
<path fill-rule="evenodd" clip-rule="evenodd" d="M21.7979 18.2961C21.9832 18.6667 22.0411 19.0431 21.9716 19.4253C21.9021 19.8075 21.7168 20.1318 21.4157 20.3981C21.1145 20.6645 20.7555 20.7977 20.3386 20.7977H3.6614C3.24447 20.7977 2.88545 20.6645 2.58433 20.3981C2.28322 20.1318 2.09792 19.8075 2.02843 19.4253C1.95894 19.0431 2.01685 18.6667 2.20215 18.2961L10.5407 3.84255C10.7492 3.47194 11.0445 3.22294 11.4267 3.09555C11.8089 2.96815 12.1911 2.96815 12.5733 3.09555C12.9555 3.22294 13.2508 3.47194 13.4593 3.84255L21.7979 18.2961ZM12 15.3081C11.5599 15.3081 11.1835 15.4645 10.8708 15.7772C10.5581 16.0899 10.4018 16.4663 10.4018 16.9063C10.4018 17.3464 10.5581 17.7228 10.8708 18.0355C11.1835 18.3482 11.5599 18.5046 12 18.5046C12.4401 18.5046 12.8165 18.3482 13.1292 18.0355C13.4419 17.7228 13.5982 17.3464 13.5982 16.9063C13.5982 16.4663 13.4419 16.0899 13.1292 15.7772C12.8165 15.4645 12.4401 15.3081 12 15.3081ZM10.7492 14.3005L10.4713 9.57533C10.4713 9.43636 10.5118 9.32633 10.5929 9.24526C10.6739 9.16419 10.7724 9.12366 10.8882 9.12366H13.1118C13.2276 9.12366 13.3261 9.16419 13.4071 9.24526C13.4882 9.32633 13.5287 9.43636 13.5287 9.57533L13.2508 14.3005C13.2508 14.3932 13.2103 14.48 13.1292 14.5611C13.0481 14.6422 12.9497 14.6827 12.8339 14.6827H11.1661C11.0503 14.6827 10.9519 14.6422 10.8708 14.5611C10.7897 14.48 10.7492 14.3932 10.7492 14.3005Z" fill="#151515"/>
</svg>
