<svg width="24" height="24" viewBox="0 0 24 24" fill="none" xmlns="http://www.w3.org/2000/svg">
<path d="M12 8.5C11.6688 8.50518 11.34 8.5578 11.0237 8.65625C11.17 8.91354 11.2479 9.20403 11.25 9.5C11.25 9.72981 11.2047 9.95738 11.1168 10.1697C11.0288 10.382 10.8999 10.5749 10.7374 10.7374C10.5749 10.8999 10.382 11.0288 10.1697 11.1168C9.95737 11.2047 9.72981 11.25 9.5 11.25C9.20403 11.2479 8.91353 11.17 8.65624 11.0237C8.45325 11.7277 8.47691 12.4778 8.72387 13.1676C8.97083 13.8574 9.42856 14.452 10.0322 14.8672C10.6359 15.2824 11.3549 15.4972 12.0874 15.481C12.8199 15.4649 13.5288 15.2187 14.1136 14.7773C14.6984 14.3359 15.1295 13.7217 15.3458 13.0217C15.5622 12.3217 15.5528 11.5713 15.319 10.877C15.0852 10.1826 14.6388 9.57937 14.0432 9.15277C13.4475 8.72616 12.7327 8.49779 12 8.5ZM20.8913 11.5437C19.1966 8.23719 15.8416 6 12 6C8.15843 6 4.80249 8.23875 3.10873 11.5441C3.03725 11.6855 3 11.8417 3 12.0002C3 12.1586 3.03725 12.3148 3.10873 12.4562C4.80342 15.7628 8.15843 18 12 18C15.8416 18 19.1975 15.7612 20.8913 12.4559C20.9628 12.3145 21 12.1583 21 11.9998C21 11.8414 20.9628 11.6852 20.8913 11.5437ZM12 16.5C8.91718 16.5 6.09093 14.7812 4.56467 12C6.09093 9.21875 8.91687 7.5 12 7.5C15.0831 7.5 17.9091 9.21875 19.4353 12C17.9094 14.7812 15.0831 16.5 12 16.5Z" fill="black"/>
</svg>
