<svg width="24" height="24" viewBox="0 0 24 24" fill="none" xmlns="http://www.w3.org/2000/svg">
<path fill-rule="evenodd" clip-rule="evenodd" d="M20.209 19.1194L19.0576 20.2708C18.9154 20.1286 18.4677 19.688 17.7143 18.9488C16.9609 18.2097 16.3852 17.6411 15.9872 17.2431C14.7647 17.7548 13.4428 18.0107 12.0213 18.0107C9.77541 18.0107 7.74271 17.3852 5.92324 16.1343C4.10377 14.8834 2.79602 13.2345 2 11.1876C2.71073 9.42502 3.8479 7.91827 5.41151 6.66738C5.07036 6.32623 4.59417 5.84293 3.98294 5.21748C3.37171 4.59204 3.02345 4.23667 2.93817 4.15139L4.08955 3L20.209 19.1194ZM22 11.1876C21.3177 12.865 20.28 14.3006 18.887 15.4947L16.2431 12.8507C16.4705 12.3106 16.5842 11.7562 16.5842 11.1876C16.5842 9.93674 16.1365 8.86354 15.2409 7.96802C14.3454 7.07249 13.2722 6.62473 12.0213 6.62473C11.4527 6.62473 10.8984 6.73845 10.3582 6.96588L8.39659 5.00426C9.50533 4.57783 10.7136 4.36461 12.0213 4.36461C14.2672 4.36461 16.2928 4.99005 18.0981 6.24094C19.9033 7.49183 21.204 9.14072 22 11.1876ZM14.7505 11.3582V11.1876C14.7505 10.4485 14.4805 9.80881 13.9403 9.26866C13.4001 8.7285 12.7605 8.45842 12.0213 8.45842H11.8934L14.7505 11.3582ZM8.80171 14.4072C9.69723 15.3028 10.7704 15.7505 12.0213 15.7505C12.6752 15.7505 13.3433 15.58 14.0256 15.2388L12.6183 13.8316C12.3909 13.8884 12.1919 13.9168 12.0213 13.9168C11.2822 13.9168 10.6425 13.6468 10.1023 13.1066C9.56219 12.5665 9.29211 11.9268 9.29211 11.1876C9.29211 11.0171 9.32054 10.8181 9.3774 10.5906L7.97015 9.18337C7.629 9.86567 7.45842 10.5338 7.45842 11.1876C7.45842 12.4385 7.90618 13.5117 8.80171 14.4072Z" fill="#151515"/>
</svg>
