<svg width="24" height="24" viewBox="0 0 24 24" fill="none" xmlns="http://www.w3.org/2000/svg">
<path d="M22 4.14286V19.8571C22 20.4524 21.7917 20.9583 21.375 21.375C20.9583 21.7917 20.4524 22 19.8571 22H16.0625V14.0982H18.7411L19.1429 11.0625H16.0625V9.14286C16.0625 8.66667 16.1518 8.30952 16.3304 8.07143C16.5685 7.80357 16.9702 7.66964 17.5357 7.66964H19.1429V4.99107C18.5179 4.90179 17.744 4.85715 16.8214 4.85715C15.631 4.85715 14.686 5.20685 13.9866 5.90625C13.2872 6.60566 12.9375 7.58036 12.9375 8.83036V11.0625H10.2143V14.0982H12.9375V22H4.14286C3.54762 22 3.04167 21.7917 2.625 21.375C2.20833 20.9583 2 20.4524 2 19.8571V4.14286C2 3.54762 2.20833 3.04167 2.625 2.625C3.04167 2.20833 3.54762 2 4.14286 2H19.8571C20.4524 2 20.9583 2.20833 21.375 2.625C21.7917 3.04167 22 3.54762 22 4.14286Z" fill="#151515"/>
</svg>
