<svg width="24" height="24" viewBox="0 0 24 24" fill="none" xmlns="http://www.w3.org/2000/svg">
<path fill-rule="evenodd" clip-rule="evenodd" d="M13.7773 2.22269C13.2956 1.74092 12.7031 1.50003 12 1.50003C11.2969 1.50003 10.7044 1.74092 10.2226 2.22269C9.74088 2.70445 9.49999 3.2969 9.49999 4.00003C9.49999 4.70315 9.74088 5.29559 10.2226 5.77736C10.7044 6.25913 11.2969 6.50002 12 6.50002C12.7031 6.50002 13.2956 6.25913 13.7773 5.77736C14.2591 5.29559 14.5 4.70315 14.5 4.00003C14.5 3.2969 14.2591 2.70445 13.7773 2.22269ZM16.4922 16.1484C16.6745 15.9141 16.7265 15.6406 16.6484 15.3281L14.7734 7.82814C14.7213 7.61981 14.6107 7.45054 14.4414 7.32033C14.2721 7.19012 14.0833 7.12502 13.875 7.12502H13.4453C12.9765 7.33335 12.4948 7.43752 12 7.43752C11.5052 7.43752 11.0234 7.33335 10.5547 7.12502H10.125C9.91666 7.12502 9.72786 7.19012 9.55859 7.32033C9.38932 7.45054 9.27864 7.61981 9.22656 7.82814L7.35156 15.3281C7.27344 15.6406 7.32552 15.9141 7.50781 16.1484C7.6901 16.3828 7.9375 16.5 8.25 16.5H10.4375V20.5625C10.4375 20.8229 10.5286 21.0443 10.7109 21.2265C10.8932 21.4088 11.1146 21.5 11.375 21.5H12.625C12.8854 21.5 13.1068 21.4088 13.289 21.2265C13.4713 21.0443 13.5625 20.8229 13.5625 20.5625V16.5H15.75C16.0625 16.5 16.3099 16.3828 16.4922 16.1484Z" fill="#151515"/>
</svg>
