<svg width="24" height="24" viewBox="0 0 24 24" fill="none" xmlns="http://www.w3.org/2000/svg">
<path d="M20.1562 3C20.3906 3 20.5898 3.08196 20.7539 3.2459C20.9179 3.40983 21 3.60888 21 3.84307C21 4.07725 20.9179 4.27631 20.7539 4.44024L14.25 10.9389V20.1424C14.25 20.4937 14.0976 20.7454 13.7929 20.8976C13.4883 21.0499 13.1953 21.0323 12.914 20.845L10.1015 18.8778C9.86717 18.6904 9.74998 18.4563 9.74998 18.1752V10.9389L3.24609 4.44024C3.08203 4.27631 3 4.07725 3 3.84307C3 3.60888 3.08203 3.40983 3.24609 3.2459C3.41016 3.08196 3.60937 3 3.84375 3H20.1562Z" fill="#151515"/>
</svg>
