<svg class="hahaha" width="24" height="24" viewBox="0 0 24 24" fill="none" xmlns="http://www.w3.org/2000/svg">
<path fill-rule="evenodd" clip-rule="evenodd" d="M19.816 7.5H21.625C22.3855 7.5 23 8.11445 23 8.875V12.3125C23 12.6906 22.6906 13 22.3125 13H1.6875C1.30937 13 1 12.6906 1 12.3125V8.875C1 8.11445 1.61445 7.5 2.375 7.5H4.26992C3.99922 6.98008 3.83594 6.4043 3.83594 5.78125C3.83594 3.69727 5.5332 2 7.61719 2C9.40469 2 10.5605 2.91523 12.043 4.93477C13.5254 2.91523 14.6812 2 16.4688 2C18.5527 2 20.25 3.69727 20.25 5.78125C20.25 6.4043 20.0824 6.98008 19.816 7.5ZM2.375 19.875C2.375 20.6355 2.98945 21.25 3.75 21.25H10.625V14.375H2.375V19.875ZM13.375 21.25H20.25C21.0105 21.25 21.625 20.6355 21.625 19.875V14.375H13.375V21.25ZM7.61289 7.5C6.66328 7.5 5.89414 6.73086 5.89414 5.78125C5.89414 4.83164 6.66328 4.0625 7.61289 4.0625C8.46797 4.0625 9.09961 4.2043 11.3125 7.5H7.61289ZM12.7691 7.5H16.4688C17.4184 7.5 18.1875 6.73086 18.1875 5.78125C18.1875 4.83164 17.4184 4.0625 16.4688 4.0625C15.5922 4.0625 14.9777 4.21289 12.7691 7.5Z" fill="#151515"/>
</svg>
