<svg width="24" height="24" viewBox="0 0 24 24" fill="none" xmlns="http://www.w3.org/2000/svg">
<path d="M17.9007 6.75488L18.0231 6.85772C18.1237 6.94342 18.2043 7.05007 18.2593 7.1702C18.3142 7.29033 18.3423 7.42104 18.3414 7.55315C18.3482 7.68824 18.3268 7.82325 18.2788 7.94968C18.2307 8.07611 18.157 8.19122 18.0623 8.28776L15.7262 10.7365C15.5431 10.931 15.4118 11.1685 15.3442 11.427C15.2707 11.6946 15.2707 11.9772 15.3442 12.2449L16.4608 16.7945C16.5048 16.9424 16.5117 17.0988 16.481 17.25C16.4502 17.4011 16.3828 17.5424 16.2845 17.6614C16.1908 17.7832 16.0697 17.8813 15.931 17.9477C15.7923 18.014 15.64 18.0468 15.4863 18.0434H13.6791V20.8789C13.6911 21.2262 13.5723 21.5653 13.3461 21.829C13.119 22.096 12.8019 22.2703 12.4548 22.3188H12.2687C12.0784 22.3215 11.8896 22.2856 11.7137 22.2132C11.5378 22.1408 11.3784 22.0334 11.2451 21.8976C11.1122 21.7711 11.006 21.6193 10.9328 21.4511C10.8596 21.2828 10.8209 21.1016 10.8191 20.9181V18.0532H9.00213C8.85034 18.0542 8.70037 18.02 8.56407 17.9532C8.42777 17.8864 8.30886 17.7889 8.21672 17.6682C8.12459 17.5476 8.06175 17.4072 8.03317 17.2581C8.00459 17.109 8.01104 16.9554 8.05203 16.8092L9.16864 12.2742C9.23965 12.0062 9.23965 11.7244 9.16864 11.4564C9.09633 11.1944 8.9561 10.9562 8.76215 10.7658L6.44569 8.31715C6.26285 8.14071 6.15574 7.90013 6.14695 7.6462C6.12892 7.40768 6.20248 7.17125 6.35264 6.98506L6.48976 6.85772C6.58401 6.76545 6.69592 6.69316 6.81879 6.64519C6.94166 6.59722 7.07295 6.57456 7.20478 6.57857C7.33625 6.58037 7.46601 6.60861 7.58633 6.66161C7.70664 6.71462 7.81506 6.79131 7.90511 6.88711L10.1187 8.74812C10.7124 9.25557 11.4681 9.53356 12.2491 9.5317C12.6339 9.53222 13.0157 9.46251 13.3755 9.32601C13.7339 9.19344 14.0656 8.99772 14.355 8.74812L16.5931 6.88711C16.7614 6.71312 16.9845 6.60243 17.2248 6.57368C17.4645 6.55152 17.7042 6.61579 17.9007 6.75488Z" fill="#1D1D1B"/>
<path d="M8.02752 2.12197C8.71465 2.19854 9.34511 2.53923 9.78568 3.07206C9.97287 3.33206 10.1462 3.60179 10.3048 3.88013L10.4076 4.06623C10.4237 4.08134 10.4364 4.09956 10.4451 4.11977C10.4538 4.13998 10.4583 4.16176 10.4583 4.18377C10.4583 4.20578 10.4538 4.22756 10.4451 4.24777C10.4364 4.26798 10.4237 4.2862 10.4076 4.30131C10.374 4.33788 10.3285 4.36138 10.2792 4.36766C10.2299 4.37393 10.18 4.36257 10.1383 4.33559C9.85834 4.19706 9.56862 4.0792 9.27146 3.98298C8.98554 3.88231 8.68296 3.83742 8.38013 3.85075C8.00283 3.86736 7.62844 3.92484 7.26353 4.02215C7.23375 4.03016 7.2026 4.03167 7.17218 4.0266C7.14177 4.02154 7.11279 4.01 7.08722 3.99277C7.06324 3.97543 7.04551 3.9508 7.03669 3.92255C7.02786 3.89431 7.02841 3.86396 7.03825 3.83605L7.41045 2.4305C7.42131 2.37397 7.44449 2.32053 7.47835 2.27397C7.51221 2.22742 7.55591 2.1889 7.60634 2.16115C7.74187 2.11593 7.88598 2.10252 8.02752 2.12197Z" fill="#1D1D1B"/>
<path d="M12.3127 3.98298C12.6085 3.98501 12.9009 4.04629 13.1726 4.16321C13.4443 4.28013 13.6898 4.45032 13.8946 4.66371C14.2613 5.02214 14.4987 5.4921 14.5696 5.99993C14.6405 6.50776 14.5409 7.02477 14.2864 7.46992C14.0782 7.8414 13.7714 8.14816 13.4 8.35635C13.0238 8.56725 12.5968 8.6706 12.1658 8.65509C11.5729 8.6338 11.0105 8.38678 10.5938 7.96455C10.3826 7.76139 10.214 7.51814 10.098 7.24905C9.98192 6.97996 9.92071 6.69042 9.91791 6.39739C9.89449 5.96625 9.99656 5.53757 10.2118 5.16325C10.4221 4.7963 10.7263 4.49202 11.0933 4.28172C11.4637 4.06984 11.8863 3.96633 12.3127 3.98298Z" fill="#1D1D1B"/>
<path d="M17.0926 2.43051L17.4452 3.83606C17.4514 3.86379 17.4507 3.89263 17.443 3.91999C17.4353 3.94734 17.4209 3.97236 17.4011 3.99278C17.3808 4.01589 17.3546 4.03309 17.3253 4.04257C17.296 4.05205 17.2647 4.05346 17.2346 4.04665C16.8724 3.93356 16.4971 3.86772 16.118 3.85076C15.8233 3.8396 15.5292 3.88447 15.2512 3.98299C14.9507 4.08253 14.6591 4.20703 14.3795 4.35519C14.3372 4.38159 14.2869 4.39214 14.2376 4.38496C14.1883 4.37779 14.1431 4.35336 14.1101 4.31601C14.0317 4.23275 14.017 4.15439 14.0709 4.08583L14.1346 3.98299C14.2986 3.69098 14.4784 3.40814 14.6733 3.13574C14.8705 2.88124 15.1069 2.65973 15.3736 2.47949C15.711 2.28746 16.0845 2.1674 16.4706 2.12688C16.6144 2.11964 16.7583 2.13619 16.8967 2.17585C16.9461 2.20125 16.9893 2.23725 17.0231 2.28127C17.057 2.3253 17.0807 2.37626 17.0926 2.43051Z" fill="#1D1D1B"/>
</svg>
