<svg width="24" height="24" viewBox="0 0 24 24" fill="none" xmlns="http://www.w3.org/2000/svg">
<path fill-rule="evenodd" clip-rule="evenodd" d="M19.8571 2C20.4524 2 20.9583 2.20833 21.375 2.625C21.7917 3.04167 22 3.54762 22 4.14286V19.8571C22 20.4524 21.7917 20.9583 21.375 21.375C20.9583 21.7917 20.4524 22 19.8571 22H4.14286C3.54762 22 3.04167 21.7917 2.625 21.375C2.20833 20.9583 2 20.4524 2 19.8571V4.14286C2 3.54762 2.20833 3.04167 2.625 2.625C3.04167 2.20833 3.54762 2 4.14286 2H19.8571ZM9.08163 15C10.2517 15 11.1973 14.64 11.9184 13.92C12.6395 13.2 13 12.2533 13 11.08C13 10.8667 12.9728 10.6533 12.9184 10.44H9.08163V11.8H11.4082C11.3265 12.2 11.1224 12.56 10.7959 12.88C10.3605 13.3067 9.79592 13.52 9.10204 13.52C8.40816 13.52 7.80952 13.2733 7.30612 12.78C6.80272 12.2867 6.55102 11.6933 6.55102 11C6.55102 10.3067 6.79592 9.71333 7.28571 9.22C7.77551 8.72667 8.36054 8.48 9.04082 8.48C9.72109 8.48 10.2789 8.68 10.7143 9.08L11.8163 8.04C11.0544 7.34667 10.1429 7 9.08163 7C7.96599 7 7.0068 7.39333 6.20408 8.18C5.40136 8.96667 5 9.90667 5 11C5 12.0933 5.40136 13.0333 6.20408 13.82C7.0068 14.6067 7.96599 15 9.08163 15ZM17.6667 10.3333H19V11.6667H17.6667V13H16.3333V11.6667H15V10.3333H16.3333V9H17.6667V10.3333Z" fill="#151515"/>
</svg>
