<svg width="24" height="24" viewBox="0 0 24 24" fill="none" xmlns="http://www.w3.org/2000/svg">
<path fill-rule="evenodd" clip-rule="evenodd" d="M4.9108 4.95775C6.88264 2.98591 9.24568 2 12 2C14.7543 2 17.1095 2.97808 19.0657 4.93427C21.0219 6.89046 22 9.24568 22 12C22 14.7543 21.0219 17.1095 19.0657 19.0657C17.1095 21.0219 14.7543 22 12 22C9.24568 22 6.89046 21.0219 4.93427 19.0657C2.97808 17.1095 2 14.7543 2 12C2 9.24568 2.97026 6.89829 4.9108 4.95775ZM12 20.0282C9.80907 20.0282 7.9155 19.2457 6.31925 17.6808C4.7543 16.0845 3.97183 14.1909 3.97183 12C3.97183 9.80907 4.76212 7.92333 6.34272 6.34272C7.92333 4.76212 9.80907 3.97183 12 3.97183C14.1909 3.97183 16.0767 4.76212 17.6573 6.34272C19.2379 7.92333 20.0282 9.80907 20.0282 12C20.0282 14.1909 19.2379 16.0767 17.6573 17.6573C16.0767 19.2379 14.1909 20.0282 12 20.0282ZM11.0141 6.97653V8.99531H12.9859V6.97653H11.0141ZM11.0141 11.0141V17.0235H12.9859V11.0141H11.0141Z" fill="#151515"/>
</svg>
