<svg width="24" height="24" viewBox="0 0 24 24" fill="none" xmlns="http://www.w3.org/2000/svg">
<path fill-rule="evenodd" clip-rule="evenodd" d="M21.9554 7.84821C21.9851 8.68155 22 10.0655 22 12C22 13.9345 21.9777 15.3259 21.933 16.1741C21.8884 17.0223 21.7619 17.7589 21.5536 18.3839C21.2857 19.128 20.8765 19.7753 20.3259 20.3259C19.7753 20.8765 19.128 21.2857 18.3839 21.5536C17.7589 21.7619 17.0223 21.8884 16.1741 21.933C15.3259 21.9777 13.9345 22 12 22C10.0655 22 8.67411 21.9777 7.82589 21.933C6.97768 21.8884 6.24107 21.747 5.61607 21.5089C4.87202 21.2708 4.2247 20.8765 3.67411 20.3259C3.12351 19.7753 2.71429 19.128 2.44643 18.3839C2.2381 17.7589 2.11161 17.0223 2.06696 16.1741C2.02232 15.3259 2 13.9345 2 12C2 10.0655 2.02232 8.67411 2.06696 7.82589C2.11161 6.97768 2.2381 6.24107 2.44643 5.61607C2.71429 4.87202 3.12351 4.2247 3.67411 3.67411C4.2247 3.12351 4.87202 2.71429 5.61607 2.44643C6.24107 2.2381 6.97768 2.11161 7.82589 2.06696C8.67411 2.02232 10.0655 2 12 2C13.9345 2 15.3259 2.02232 16.1741 2.06696C17.0223 2.11161 17.7589 2.2381 18.3839 2.44643C19.128 2.71429 19.7753 3.12351 20.3259 3.67411C20.8765 4.2247 21.2857 4.87202 21.5536 5.61607C21.7619 6.24107 21.8958 6.98512 21.9554 7.84821ZM17.6852 7.7037C17.8704 7.50617 17.9753 7.2716 18 7C18 6.7284 17.9012 6.49383 17.7037 6.2963C17.5062 6.09877 17.2716 6 17 6C16.7284 6 16.4938 6.09877 16.2963 6.2963C16.0988 6.49383 16 6.7284 16 7C16 7.2716 16.0988 7.50617 16.2963 7.7037C16.4938 7.90123 16.7284 8 17 8C17.2716 8 17.5 7.90123 17.6852 7.7037ZM12 7C12.8986 7 13.7319 7.22464 14.5 7.67391C15.2681 8.12319 15.8768 8.73188 16.3261 9.5C16.7754 10.2681 17 11.1014 17 12C17 12.8986 16.7754 13.7319 16.3261 14.5C15.8768 15.2681 15.2681 15.8768 14.5 16.3261C13.7319 16.7754 12.8986 17 12 17C11.1014 17 10.2681 16.7754 9.5 16.3261C8.73188 15.8768 8.12319 15.2681 7.67391 14.5C7.22464 13.7319 7 12.8986 7 12C7 11.1014 7.22464 10.2681 7.67391 9.5C8.12319 8.73188 8.73188 8.12319 9.5 7.67391C10.2681 7.22464 11.1014 7 12 7ZM12 15C12.8267 15 13.5333 14.7067 14.12 14.12C14.7067 13.5333 15 12.8267 15 12C15 11.1733 14.7067 10.4667 14.12 9.88C13.5333 9.29333 12.8267 9 12 9C11.1733 9 10.4667 9.29333 9.88 9.88C9.29333 10.4667 9 11.1733 9 12C9 12.8267 9.29333 13.5333 9.88 14.12C10.4667 14.7067 11.1733 15 12 15ZM19.9565 15.3913C19.8986 16.4638 19.7826 17.2464 19.6087 17.7391C19.2609 18.6087 18.6377 19.2319 17.7391 19.6087C17.2754 19.7826 16.4928 19.8986 15.3913 19.9565C14.7826 19.9855 13.8841 20 12.6957 20H11.3043C10.1449 20 9.24638 19.9855 8.6087 19.9565C7.53623 19.8986 6.75362 19.7826 6.26087 19.6087C5.39131 19.2609 4.76812 18.6377 4.3913 17.7391C4.21739 17.2464 4.10145 16.4638 4.04348 15.3913C4.01449 14.7536 4 13.8551 4 12.6957V11.3043C4 10.1449 4.01449 9.24638 4.04348 8.6087C4.10145 7.50725 4.21739 6.72464 4.3913 6.26087C4.73913 5.36232 5.36232 4.73913 6.26087 4.3913C6.75362 4.21739 7.53623 4.10145 8.6087 4.04348C9.24638 4.01449 10.1449 4 11.3043 4H12.6957C13.8551 4 14.7536 4.01449 15.3913 4.04348C16.4928 4.10145 17.2754 4.21739 17.7391 4.3913C18.6377 4.73913 19.2609 5.36232 19.6087 6.26087C19.7826 6.72464 19.8986 7.50725 19.9565 8.6087C19.9855 9.21739 20 10.1159 20 11.3043V12.6957C20 13.8551 19.9855 14.7536 19.9565 15.3913Z" fill="#151515"/>
</svg>
