<svg width="24" height="24" viewBox="0 0 24 24" fill="none" xmlns="http://www.w3.org/2000/svg">
<path d="M11.206 6.8355L11.3112 6.92047C11.3948 6.99171 11.4617 7.08049 11.5072 7.18048C11.5526 7.28048 11.5755 7.38926 11.5742 7.4991C11.5776 7.60985 11.5589 7.72017 11.5193 7.82366C11.4797 7.92716 11.42 8.02176 11.3436 8.10201L9.41346 10.1252C9.26305 10.2888 9.15352 10.4857 9.0938 10.6998C9.03512 10.9212 9.03512 11.1541 9.0938 11.3755L9.99209 15.1426C10.0266 15.2654 10.0316 15.3946 10.0067 15.5197C9.98184 15.6447 9.92775 15.7622 9.84885 15.8624C9.76996 15.9626 9.6685 16.0427 9.55276 16.0962C9.43701 16.1498 9.31025 16.1752 9.18282 16.1704H7.71804V18.5133C7.72103 18.7987 7.61875 19.0753 7.43075 19.2902C7.24314 19.5107 6.98108 19.6547 6.69431 19.6948H6.54055C6.38292 19.6977 6.22639 19.668 6.08083 19.6074C5.93528 19.5468 5.80386 19.4567 5.69486 19.3428C5.58466 19.2386 5.49667 19.1132 5.43617 18.9741C5.37568 18.835 5.34393 18.6851 5.34283 18.5335V16.1704H3.85378C3.72981 16.1723 3.60717 16.1447 3.49599 16.0898C3.38482 16.035 3.28831 15.9544 3.21445 15.8548C3.13425 15.7568 3.07909 15.6408 3.05371 15.5167C3.02833 15.3926 3.03351 15.2643 3.06879 15.1426L3.99135 11.3836C4.05215 11.1624 4.05215 10.929 3.99135 10.7079C3.93219 10.4909 3.81788 10.293 3.65955 10.1333L1.74563 8.1101C1.60025 7.97237 1.51334 7.78406 1.50285 7.58407C1.48589 7.38244 1.54508 7.18178 1.66875 7.02163L1.76991 6.92047C1.84692 6.84305 1.93924 6.78255 2.04096 6.74284C2.14269 6.70312 2.25158 6.68507 2.36067 6.68983C2.47194 6.6907 2.58182 6.71451 2.68347 6.75976C2.78512 6.80502 2.87634 6.87075 2.95144 6.95284L4.78039 8.4945C5.27011 8.91504 5.89505 9.1449 6.54055 9.14192C6.85849 9.14198 7.17381 9.0844 7.47121 8.97197C7.76656 8.86083 8.04038 8.69928 8.28048 8.4945L10.1256 6.95284C10.2659 6.80785 10.4515 6.71506 10.6516 6.68983C10.848 6.66913 11.0452 6.72094 11.206 6.8355ZM3.0526 3.00361C3.35937 3.04061 3.65538 3.13974 3.92256 3.29494C4.14627 3.42285 4.34393 3.59169 4.50524 3.79264C4.6064 3.93022 4.75207 4.15277 4.93415 4.46029L5.03531 4.61405C5.04615 4.62885 5.05393 4.64567 5.05818 4.66352C5.06242 4.68137 5.06306 4.69989 5.06004 4.71799C5.05702 4.73608 5.05042 4.75339 5.04061 4.7689C5.03081 4.78441 5.018 4.7978 5.00294 4.80828C4.97515 4.8385 4.93757 4.85791 4.89684 4.8631C4.85611 4.86828 4.81486 4.8589 4.78039 4.8366C4.54809 4.72127 4.3073 4.62387 4.06014 4.54527C3.83018 4.46468 3.58755 4.4263 3.34394 4.43197C3.0323 4.44935 2.72321 4.49815 2.42137 4.57764C2.39679 4.58452 2.37101 4.58591 2.34583 4.58172C2.32066 4.57752 2.29672 4.56784 2.2757 4.55336C2.25566 4.53915 2.24059 4.51901 2.2326 4.49578C2.22462 4.47255 2.22412 4.4474 2.23119 4.42388L2.53871 3.26257C2.5504 3.2169 2.57158 3.1742 2.60086 3.13725C2.63014 3.1003 2.66687 3.06993 2.70866 3.04812C2.81849 3.00755 2.93606 2.99234 3.0526 3.00361ZM6.58911 4.54527C6.8341 4.54686 7.07629 4.59744 7.30144 4.69403C7.52659 4.79062 7.73014 4.93127 7.90012 5.10771C8.20067 5.40531 8.39514 5.79341 8.45362 6.21231C8.51211 6.63121 8.43137 7.05772 8.22383 7.42627C8.05175 7.73452 7.7966 7.98828 7.4874 8.15865C7.12022 8.3686 6.69374 8.45072 6.27485 8.39214C5.85596 8.33355 5.46838 8.13757 5.17289 7.83495C4.99602 7.66592 4.85478 7.4632 4.75749 7.23874C4.6602 7.01428 4.60883 6.77261 4.6064 6.52798C4.59717 6.17756 4.68295 5.83118 4.85463 5.52557C5.02631 5.21996 5.27751 4.96651 5.58157 4.79209C5.8869 4.61516 6.23657 4.5295 6.58911 4.54527ZM10.5383 3.26257L10.8297 4.42388C10.8353 4.44646 10.8354 4.47008 10.8297 4.49267C10.8241 4.51525 10.8129 4.5361 10.7973 4.55336C10.7806 4.57249 10.7588 4.58646 10.7344 4.59363C10.71 4.60079 10.6841 4.60086 10.6597 4.59382C10.3595 4.50434 10.0499 4.45002 9.73717 4.43197C9.49224 4.42643 9.24831 4.4648 9.01692 4.54527C8.76965 4.62663 8.52999 4.72953 8.30071 4.85279C8.26558 4.87497 8.22353 4.88352 8.18253 4.87681C8.14152 4.8701 8.10439 4.8486 8.07816 4.81637C8.00938 4.74758 7.99724 4.68689 8.04579 4.63024L8.09435 4.54527C8.28857 4.21347 8.43829 3.97878 8.53945 3.8412C8.70459 3.63039 8.9011 3.44616 9.12212 3.29494C9.40206 3.13896 9.71011 3.03995 10.0285 3.00361C10.1529 2.99608 10.2777 3.01116 10.3967 3.04812C10.4352 3.07065 10.4679 3.10171 10.4925 3.13889C10.517 3.17606 10.5327 3.21838 10.5383 3.26257ZM22.2525 6.90429C22.3322 6.98126 22.3952 7.07377 22.4376 7.17608C22.4801 7.2784 22.5011 7.38834 22.4993 7.4991C22.5038 7.60755 22.4856 7.71575 22.4459 7.81677C22.4061 7.91779 22.3458 8.00942 22.2687 8.08582L19.5334 11.0113C19.4495 11.0934 19.3833 11.1917 19.3388 11.3002C19.2942 11.4088 19.2723 11.5253 19.2744 11.6426V18.9745C19.2774 19.1466 19.2169 19.3137 19.1045 19.4439C18.9953 19.5724 18.8453 19.6595 18.6796 19.6907H18.5582C18.4623 19.6928 18.3671 19.6748 18.2786 19.6378C18.1901 19.6009 18.1103 19.5459 18.0443 19.4763C17.9788 19.4104 17.9272 19.3321 17.8924 19.2459C17.8577 19.1597 17.8405 19.0674 17.842 18.9745V15.4866C17.8406 15.4061 17.8136 15.3282 17.7651 15.264C17.7103 15.1963 17.6351 15.148 17.5507 15.1265H17.4819C17.3831 15.1242 17.2873 15.1605 17.2148 15.2276C17.1792 15.2605 17.151 15.3006 17.1322 15.3453C17.1133 15.3899 17.1043 15.4381 17.1056 15.4866V18.9745C17.1085 19.1466 17.048 19.3137 16.9356 19.4439C16.8242 19.5717 16.6732 19.6586 16.5067 19.6907H16.3853C16.1945 19.6897 16.0117 19.6143 15.8757 19.4806C15.7397 19.3468 15.6612 19.1653 15.657 18.9745V11.6385C15.6598 11.5215 15.6387 11.4051 15.5948 11.2965C15.551 11.188 15.4854 11.0895 15.4021 11.0073L12.6667 8.09796C12.514 7.9385 12.4308 7.72495 12.4353 7.50419C12.4399 7.28343 12.5318 7.0735 12.691 6.92047C12.7703 6.84272 12.8647 6.78211 12.9685 6.74244C13.0722 6.70276 13.183 6.68485 13.2939 6.68983C13.4034 6.6909 13.5114 6.71486 13.611 6.76015C13.7107 6.80545 13.7998 6.87108 13.8725 6.95284L15.7217 8.4945C16.2145 8.90243 16.8341 9.12564 17.4738 9.12564C18.1135 9.12564 18.7331 8.90243 19.2259 8.4945L21.071 6.95284C21.1442 6.87058 21.2339 6.80465 21.3343 6.75933C21.4347 6.71402 21.5435 6.69034 21.6537 6.68983C21.7637 6.68702 21.8733 6.70595 21.9761 6.74552C22.0788 6.7851 22.1728 6.84455 22.2525 6.92047V6.90429ZM17.5304 4.54527C18.02 4.55946 18.4856 4.76 18.8323 5.10593C19.179 5.45186 19.3805 5.91708 19.3958 6.40659C19.4032 6.67034 19.3564 6.9328 19.2583 7.17775C19.1602 7.42271 19.013 7.64496 18.8257 7.83077C18.6383 8.01658 18.4149 8.16201 18.1692 8.25808C17.9234 8.35414 17.6606 8.3988 17.3969 8.3893C16.9085 8.37549 16.4451 8.17064 16.1061 7.81876C15.8042 7.52637 15.6081 7.14182 15.5487 6.72571C15.4894 6.3096 15.5702 5.88558 15.7784 5.52044C15.9529 5.21509 16.2075 4.96324 16.5148 4.79209C16.8235 4.61617 17.1754 4.53063 17.5304 4.54527Z" fill="#1D1D1B"/>
</svg>
