<svg width="24" height="24" viewBox="0 0 24 24" fill="none" xmlns="http://www.w3.org/2000/svg">
<path d="M13.1989 7.26666C9.85425 9.35261 10.7397 12.5543 10.7397 12.5543C10.7397 12.5543 9.76205 13.981 9.35218 15.7354C9.35071 15.739 9.34951 15.7426 9.34789 15.746C9.31678 15.6243 9.28265 15.5034 9.2462 15.3837C9.02022 14.6522 8.69664 13.9507 8.2798 13.3013C8.68313 12.6409 8.17467 10.8627 6.80374 10.0132C4.13666 8.3597 1 9.91655 1 9.91655C1 9.91655 2.89394 12.6722 4.52936 13.404C5.91689 14.025 6.47769 13.6623 6.47769 13.6623C6.47769 13.6623 5.63975 11.6542 3.38686 10.7503C3.82455 10.7526 4.4592 10.8708 4.88094 10.9645C5.2264 11.0412 6.90086 11.7166 7.7239 13.3032C8.13582 14.0021 8.43159 14.7581 8.60909 15.5305C8.71135 15.9802 8.77293 16.4365 8.77905 16.8854C8.78314 17.011 8.79418 17.5045 8.7312 18H10.1952C10.1519 16.7395 10.3744 15.4005 10.4674 15.0839C10.5695 14.7367 11.5586 11.4079 13.5696 9.70359C15.623 7.96308 18.9528 7.56306 19.6328 7.51964C13.6381 9.40888 13.0388 13.0235 13.0388 13.0235C13.0388 13.0235 15.7989 12.9947 18.1455 11.4683C20.8095 9.73599 23 7.64621 23 7.64621C23 7.64621 18.1005 4.20997 13.1989 7.26666Z" fill="black"/>
</svg>
