<svg width="24" height="24" viewBox="0 0 24 24" fill="none" xmlns="http://www.w3.org/2000/svg">
<path d="M6.88889 20.1818H10.4444C10.4444 21.1818 9.64444 22 8.66667 22C7.68889 22 6.88889 21.1818 6.88889 20.1818ZM5.11111 19.2727H12.2222V17.4545H5.11111V19.2727ZM15.3333 10.6364C15.3333 14.1091 12.9689 15.9636 11.9822 16.5455H5.35111C4.36444 15.9636 2 14.1091 2 10.6364C2 6.87273 4.98667 3.81818 8.66667 3.81818C12.3467 3.81818 15.3333 6.87273 15.3333 10.6364ZM19.6622 8.7L18.4444 9.27273L19.6622 9.84545L20.2222 11.0909L20.7822 9.84545L22 9.27273L20.7822 8.7L20.2222 7.45455L19.6622 8.7ZM17.5556 7.45455L18.3911 5.58182L20.2222 4.72727L18.3911 3.87273L17.5556 2L16.72 3.87273L14.8889 4.72727L16.72 5.58182L17.5556 7.45455Z" fill="black"/>
</svg>
