<svg width="24" height="24" viewBox="0 0 24 24" fill="none" xmlns="http://www.w3.org/2000/svg">
<path fill-rule="evenodd" clip-rule="evenodd" d="M21.5759 2.42411C21.2932 2.14137 20.9583 2 20.5714 2H3.42857C3.04167 2 2.70685 2.14137 2.42411 2.42411C2.14137 2.70685 2 3.04167 2 3.42857V20.5714C2 20.9583 2.14137 21.2932 2.42411 21.5759C2.70685 21.8586 3.04167 22 3.42857 22H20.5714C20.9583 22 21.2932 21.8586 21.5759 21.5759C21.8586 21.2932 22 20.9583 22 20.5714V3.42857C22 3.04167 21.8586 2.70685 21.5759 2.42411ZM7 20H4V10H7V20ZM5.48052 8C5.8961 8 6.25325 7.85065 6.55195 7.55195C6.85065 7.25325 7 6.9026 7 6.5C7 6.0974 6.85065 5.74675 6.55195 5.44805C6.25325 5.14935 5.8961 5 5.48052 5C5.06493 5 4.71429 5.14935 4.42857 5.44805C4.14286 5.74675 4 6.0974 4 6.5C4 6.9026 4.14286 7.25325 4.42857 7.55195C4.71429 7.85065 5.06493 8 5.48052 8ZM19 14.6575V20H16.1304V15.2511C16.1304 14.4597 16.058 13.8813 15.913 13.516C15.7101 12.9376 15.2754 12.6484 14.6087 12.6484C13.942 12.6484 13.4638 12.9072 13.1739 13.4247C12.971 13.8204 12.8696 14.3988 12.8696 15.1598V20H10V10.2283H12.7826V11.5525H12.8261C13.029 11.1263 13.3478 10.7763 13.7826 10.5023C14.3043 10.1674 14.8986 10 15.5652 10C16.8986 10 17.8406 10.4414 18.3913 11.3242C18.7971 12.0244 19 13.1355 19 14.6575Z" fill="#151515"/>
</svg>
