<svg width="24" height="24" viewBox="0 0 24 24" fill="none" xmlns="http://www.w3.org/2000/svg">
<path fill-rule="evenodd" clip-rule="evenodd" d="M21 19.37L15.6005 13.9705H14.7346L14.429 13.6649C15.5496 12.3744 16.1099 10.8463 16.1099 9.08043C16.1099 7.1108 15.4307 5.43834 14.0724 4.063C12.714 2.68766 11.0501 2 9.08043 2C7.1108 2 5.43834 2.68766 4.063 4.063C2.68766 5.43834 2 7.1108 2 9.08043C2 11.0501 2.68766 12.714 4.063 14.0724C5.43834 15.4307 7.1108 16.1099 9.08043 16.1099C10.8463 16.1099 12.3744 15.5496 13.6649 14.429L13.9705 14.7346V15.6005L19.37 21L21 19.37ZM5.61662 12.5442C6.56748 13.4951 7.72207 13.9705 9.08043 13.9705C10.4388 13.9705 11.5934 13.4951 12.5442 12.5442C13.4951 11.5934 13.9705 10.4388 13.9705 9.08043C13.9705 7.72207 13.4951 6.56748 12.5442 5.61662C11.5934 4.66577 10.4388 4.19035 9.08043 4.19035C7.72207 4.19035 6.56748 4.66577 5.61662 5.61662C4.66577 6.56748 4.19035 7.72207 4.19035 9.08043C4.19035 10.4388 4.66577 11.5934 5.61662 12.5442ZM6.32976 8.52011H11.7802V9.58981H6.32976V8.52011Z" fill="#151515"/>
</svg>
