<svg width="24" height="24" viewBox="0 0 24 24" fill="none" xmlns="http://www.w3.org/2000/svg">
<path fill-rule="evenodd" clip-rule="evenodd" d="M20 18.5416L15.1689 13.7105H14.3941L14.1206 13.437C15.1233 12.2824 15.6247 10.9151 15.6247 9.33512C15.6247 7.57282 15.017 6.07641 13.8016 4.84584C12.5862 3.61528 11.0974 3 9.33512 3C7.57282 3 6.07641 3.61528 4.84584 4.84584C3.61528 6.07641 3 7.57282 3 9.33512C3 11.0974 3.61528 12.5862 4.84584 13.8016C6.07641 15.017 7.57282 15.6247 9.33512 15.6247C10.9151 15.6247 12.2824 15.1233 13.437 14.1206L13.7105 14.3941V15.1689L18.5416 20L20 18.5416ZM9.33512 13.7105C8.11974 13.7105 7.08669 13.2851 6.23592 12.4343C5.38516 11.5836 4.95979 10.5505 4.95979 9.33512C4.95979 8.11974 5.38516 7.08669 6.23592 6.23592C7.08669 5.38516 8.11974 4.95979 9.33512 4.95979C10.5505 4.95979 11.5836 5.38516 12.4343 6.23592C13.2851 7.08669 13.7105 8.11974 13.7105 9.33512C13.7105 10.5505 13.2851 11.5836 12.4343 12.4343C11.5836 13.2851 10.5505 13.7105 9.33512 13.7105Z" fill="#151515"/>
</svg>
