<svg width="24" height="24" viewBox="0 0 24 24" fill="none" xmlns="http://www.w3.org/2000/svg">
<path fill-rule="evenodd" clip-rule="evenodd" d="M13.7773 2.22269C13.2956 1.74092 12.7031 1.50003 12 1.50003C11.2969 1.50003 10.7044 1.74092 10.2227 2.22269C9.74088 2.70445 9.5 3.2969 9.5 4.00003C9.5 4.70315 9.74088 5.29559 10.2227 5.77736C10.7044 6.25913 11.2969 6.50002 12 6.50002C12.7031 6.50002 13.2956 6.25913 13.7773 5.77736C14.2591 5.29559 14.5 4.70315 14.5 4.00003C14.5 3.2969 14.2591 2.70445 13.7773 2.22269ZM15.2031 7.67189C14.8385 7.30731 14.3958 7.12502 13.875 7.12502H13.4453C12.9766 7.33335 12.4948 7.43752 12 7.43752C11.5052 7.43752 11.0234 7.33335 10.5547 7.12502H10.125C9.60416 7.12502 9.16146 7.30731 8.79687 7.67189C8.43229 8.03647 8.25 8.47918 8.25 9.00001V14.3125C8.25 14.5729 8.34115 14.7943 8.52344 14.9766C8.70573 15.1589 8.92708 15.25 9.1875 15.25H9.8125V20.5625C9.8125 20.8229 9.90364 21.0443 10.0859 21.2265C10.2682 21.4088 10.4896 21.5 10.75 21.5H13.25C13.5104 21.5 13.7318 21.4088 13.914 21.2265C14.0963 21.0443 14.1875 20.8229 14.1875 20.5625V15.25H14.8125C15.0729 15.25 15.2943 15.1589 15.4765 14.9766C15.6588 14.7943 15.75 14.5729 15.75 14.3125V9.00001C15.75 8.47918 15.5677 8.03647 15.2031 7.67189Z" fill="#151515"/>
</svg>
