<svg width="24" height="24" viewBox="0 0 24 24" fill="none" xmlns="http://www.w3.org/2000/svg">
<path d="M22 4.14286V19.8571C22 20.4524 21.7917 20.9583 21.375 21.375C20.9583 21.7917 20.4524 22 19.8571 22H8.875C9.52976 20.9286 9.94643 20.0506 10.125 19.3661L10.7946 16.7321C10.9732 17.0893 11.3006 17.3943 11.7768 17.6473C12.253 17.9003 12.7589 18.0268 13.2946 18.0268C14.3958 17.997 15.378 17.6845 16.2411 17.0893C17.1042 16.494 17.7812 15.6756 18.2723 14.6339C18.7634 13.5923 19.0089 12.4613 19.0089 11.2411C19.0089 10.0208 18.7113 8.92708 18.1161 7.95982C17.5208 6.99256 16.7024 6.23363 15.6607 5.68304C14.619 5.13244 13.4732 4.85715 12.2232 4.85715C10.7054 4.85715 9.38095 5.16964 8.25 5.79464C7.20833 6.38988 6.40476 7.19345 5.83929 8.20536C5.27381 9.21726 4.99107 10.3185 4.99107 11.5089C4.99107 12.3423 5.1994 13.1756 5.61607 14.0089C6.03274 14.8423 6.56845 15.4226 7.22321 15.75C7.43155 15.8393 7.55059 15.7798 7.58036 15.5714L7.89286 14.3661C7.92262 14.247 7.89286 14.1429 7.80357 14.0536C7.56548 13.756 7.37202 13.3765 7.22321 12.9152C7.0744 12.4539 7 12 7 11.5536C7 10.7202 7.20089 9.93899 7.60268 9.20982C8.00446 8.48065 8.5625 7.90774 9.27679 7.49107C10.0506 7.01488 10.9435 6.77679 11.9554 6.77679C13.2946 6.77679 14.3958 7.19345 15.2589 8.02679C16.122 8.86012 16.5536 9.93155 16.5536 11.2411C16.5536 12.6994 16.2188 13.8973 15.5491 14.8348C14.8795 15.7723 14.0536 16.2411 13.0714 16.2411C12.5357 16.2411 12.1042 16.0476 11.7768 15.6607C11.4494 15.2738 11.3452 14.8125 11.4643 14.2768C11.5238 13.9494 11.6577 13.4732 11.8661 12.8482C12.1935 11.7768 12.3571 11.0327 12.3571 10.6161C12.3571 10.0506 12.1935 9.63393 11.8661 9.36607C11.5387 9.09821 11.1443 9.01637 10.683 9.12054C10.2217 9.2247 9.82738 9.48512 9.5 9.90179C9.17262 10.378 9.00893 10.9881 9.00893 11.7321C9.00893 12.3869 9.1131 12.9375 9.32143 13.3839L8.69643 15.9286C8.25 17.744 7.99702 18.9196 7.9375 19.4554C7.84821 20.0804 7.8631 20.9137 7.98214 21.9554L8.11607 22H4.14286C3.54762 22 3.04167 21.7917 2.625 21.375C2.20833 20.9583 2 20.4524 2 19.8571V4.14286C2 3.54762 2.20833 3.04167 2.625 2.625C3.04167 2.20833 3.54762 2 4.14286 2H19.8571C20.4524 2 20.9583 2.20833 21.375 2.625C21.7917 3.04167 22 3.54762 22 4.14286Z" fill="#151515"/>
</svg>
