<svg width="24" height="24" viewBox="0 0 24 24" fill="none" xmlns="http://www.w3.org/2000/svg">
<path d="M6.54648 17.4535C8.07889 18.9558 9.89671 19.707 12 19.707C14.1033 19.707 15.9136 18.9483 17.431 17.4309C18.9484 15.9136 19.7071 14.1033 19.7071 12C19.7071 9.89668 18.9484 8.08637 17.431 6.569C15.9136 5.05163 14.1033 4.29295 12 4.29295C9.89671 4.29295 8.0864 5.05163 6.56902 6.569C5.05164 8.08637 4.29296 9.89668 4.29296 12C4.29296 14.1033 5.04413 15.9211 6.54648 17.4535Z" fill="#fff"/>
<path fill-rule="evenodd" clip-rule="evenodd" d="M5.19436 5.23944C7.08733 3.34647 9.35585 2.4 12 2.4C14.6441 2.4 16.9051 3.33896 18.7831 5.2169C20.661 7.09485 21.6 9.35586 21.6 12C21.6 14.6441 20.661 16.9052 18.7831 18.7831C16.9051 20.661 14.6441 21.6 12 21.6C9.35585 21.6 7.09484 20.661 5.2169 18.7831C3.33896 16.9052 2.4 14.6441 2.4 12C2.4 9.35586 3.33145 7.10236 5.19436 5.23944ZM6.54648 17.4535C8.07889 18.9558 9.89671 19.707 12 19.707C14.1033 19.707 15.9136 18.9483 17.431 17.4309C18.9484 15.9136 19.7071 14.1033 19.7071 12C19.7071 9.89669 18.9484 8.08638 17.431 6.56901C15.9136 5.05164 14.1033 4.29296 12 4.29296C9.89671 4.29296 8.0864 5.05164 6.56902 6.56901C5.05164 8.08638 4.29296 9.89669 4.29296 12C4.29296 14.1033 5.04413 15.9211 6.54648 17.4535ZM15.831 12L10.062 7.67324V16.3268L15.831 12Z" fill="#151515"/>
</svg>
