<svg width="24" height="24" viewBox="0 0 24 24" fill="none" xmlns="http://www.w3.org/2000/svg">
<path d="M21.5241 2H19.644C19.5796 1.99993 19.5158 2.01295 19.4565 2.03829C19.3973 2.06362 19.3438 2.10073 19.2993 2.14737C19.2548 2.19402 19.2202 2.24922 19.1976 2.30963C19.1751 2.37004 19.1651 2.4344 19.1681 2.49881L19.3268 5.78293C18.4045 4.69543 17.2565 3.82206 15.9627 3.22358C14.6688 2.6251 13.2602 2.31589 11.8348 2.31746C6.41536 2.31746 1.99604 6.74325 2 12.1663C2.00397 17.598 6.40585 22 11.8348 22C14.2702 22.0034 16.6195 21.0993 18.425 19.4639C18.4732 19.4207 18.5121 19.3681 18.5393 19.3093C18.5666 19.2506 18.5815 19.1869 18.5833 19.1221C18.5851 19.0574 18.5737 18.993 18.5497 18.9328C18.5257 18.8726 18.4898 18.818 18.444 18.7722L17.0957 17.423C17.0103 17.3376 16.8958 17.2879 16.7752 17.2838C16.6546 17.2798 16.537 17.3217 16.4461 17.4012C15.3807 18.3391 14.0549 18.9298 12.6455 19.0946C11.236 19.2593 9.80986 18.9902 8.55714 18.3232C7.30442 17.6562 6.28464 16.6229 5.63375 15.3611C4.98286 14.0993 4.73178 12.669 4.914 11.2608C5.09621 9.8526 5.70305 8.53342 6.65362 7.47914C7.60419 6.42485 8.85333 5.68554 10.2345 5.35977C11.6157 5.034 13.0633 5.13725 14.3844 5.65575C15.7054 6.17425 16.8371 7.08336 17.6287 8.2619L13.6023 8.06865C13.538 8.06558 13.4736 8.07564 13.4133 8.09819C13.3529 8.12075 13.2977 8.15534 13.2511 8.19986C13.2045 8.24439 13.1674 8.29793 13.1421 8.35723C13.1168 8.41653 13.1038 8.48035 13.1038 8.54484V10.4262C13.1038 10.5525 13.154 10.6736 13.2432 10.7629C13.3325 10.8522 13.4535 10.9024 13.5797 10.9024H21.5241C21.6503 10.9024 21.7714 10.8522 21.8606 10.7629C21.9499 10.6736 22 10.5525 22 10.4262V2.47619C22 2.3499 21.9499 2.22878 21.8606 2.13947C21.7714 2.05017 21.6503 2 21.5241 2Z" fill="black"/>
</svg>
