<svg width="24" height="24" viewBox="0 0 24 24" fill="none" xmlns="http://www.w3.org/2000/svg">
<path fill-rule="evenodd" clip-rule="evenodd" d="M8.99999 14.2813V13H7.24999C7.18749 13 7.1302 12.974 7.07812 12.9219C7.02603 12.8698 7 12.8125 7 12.75V12.25C7 12.1875 7.02603 12.1302 7.07812 12.0781C7.1302 12.0261 7.18749 12 7.24999 12H8.99999V10H7.24999C7.18749 10 7.1302 9.97397 7.07812 9.92189C7.02603 9.86981 7 9.81252 7 9.75002V9.25002C7 9.18752 7.02603 9.13023 7.07812 9.07814C7.1302 9.02606 7.18749 9.00002 7.24999 9.00002H8.99999V7.00003H7.24999C7.18749 7.00003 7.1302 6.97398 7.07812 6.9219C7.02603 6.86982 7 6.81252 7 6.75002V6.25003C7 6.18753 7.02603 6.13023 7.07812 6.07815C7.1302 6.02607 7.18749 6.00003 7.24999 6.00003H8.99999V5.00003C8.99999 4.7292 8.90103 4.49482 8.70311 4.2969C8.5052 4.09899 8.27082 4.00003 8 4.00003H5C4.72916 4.00003 4.49479 4.09899 4.29687 4.2969C4.09896 4.49482 4 4.7292 4 5.00003V19C4 19.0417 4.01042 19.1042 4.03125 19.1875L4.0625 19.25L8.99999 14.2813ZM19.7031 15.2969C19.5052 15.099 19.2708 15 19 15H18V16.75C18 16.8125 17.9739 16.8698 17.9218 16.9219C17.8698 16.974 17.8125 17 17.75 17H17.25C17.1875 17 17.1302 16.974 17.0781 16.9219C17.026 16.8698 17 16.8125 17 16.75V15H15V16.75C15 16.8125 14.9739 16.8698 14.9218 16.9219C14.8698 16.974 14.8125 17 14.75 17H14.25C14.1875 17 14.1302 16.974 14.0781 16.9219C14.026 16.8698 14 16.8125 14 16.75V15H12V16.75C12 16.8125 11.9739 16.8698 11.9219 16.9219C11.8698 16.974 11.8125 17 11.75 17H11.25C11.1875 17 11.1302 16.974 11.0781 16.9219C11.026 16.8698 11 16.8125 11 16.75V15H9.71874L4.75 19.9375L4.8125 19.9687C4.89583 19.9896 4.95833 20 5 20H19C19.2708 20 19.5052 19.901 19.7031 19.7031C19.901 19.5052 20 19.2708 20 19V16C20 15.7292 19.901 15.4948 19.7031 15.2969Z" fill="#151515"/>
</svg>
