<svg width="24" height="24" viewBox="0 0 24 24" fill="none" xmlns="http://www.w3.org/2000/svg">
<path d="M21.7243 7.01523L15.6407 4C15.0127 4.86863 13.6222 5.4748 12.0006 5.4748C10.3789 5.4748 8.98846 4.86863 8.36041 4L2.27685 7.01523C2.03 7.14021 1.93002 7.44017 2.05188 7.68701L3.83914 11.2647C3.96412 11.5115 4.26408 11.6115 4.51092 11.4896L6.27944 10.6241C6.61065 10.4616 6.9981 10.7022 6.9981 11.0741V18.998C6.9981 19.5511 7.44491 19.9979 7.99796 19.9979H15.9969C16.55 19.9979 16.9968 19.5511 16.9968 18.998V11.0709C16.9968 10.7022 17.3842 10.4585 17.7154 10.621L19.4839 11.4865C19.7308 11.6115 20.0307 11.5115 20.1557 11.2615L21.9461 7.68701C22.0711 7.44017 21.9711 7.13708 21.7243 7.01523Z" fill="#151515"/>
</svg>
