<svg width="24" height="24" viewBox="0 0 24 24" fill="none" xmlns="http://www.w3.org/2000/svg">
<path d="M2 11.8484V3.875C2 2.83945 2.83945 2 3.875 2H11.8484C12.3456 2 12.8226 2.19755 13.1742 2.54918L21.4508 10.8258C22.1831 11.5581 22.1831 12.7452 21.4508 13.4775L13.4775 21.4508C12.7452 22.1831 11.5581 22.1831 10.8258 21.4508L2.54918 13.1742C2.19755 12.8226 2 12.3456 2 11.8484H2ZM6.375 4.5C5.33945 4.5 4.5 5.33945 4.5 6.375C4.5 7.41055 5.33945 8.25 6.375 8.25C7.41055 8.25 8.25 7.41055 8.25 6.375C8.25 5.33945 7.41055 4.5 6.375 4.5Z" fill="black"/>
</svg>
