<svg width="24" height="24" viewBox="0 0 24 24" fill="none" xmlns="http://www.w3.org/2000/svg">
<path d="M6.15517 13.5197L13.5197 6.15519L17.9384 10.5739L10.5739 17.9384L6.15517 13.5197ZM17.5702 6.52341C18.1803 7.13352 19.1694 7.13352 19.7795 6.52341L21.9889 8.73277C22.599 9.34288 22.599 10.332 21.9889 10.9421L10.9421 21.9889C10.332 22.599 9.34286 22.599 8.73275 21.9889L6.52339 19.7796C7.1335 19.1695 7.1335 18.1803 6.52339 17.5702C5.91329 16.9601 4.92414 16.9601 4.31404 17.5702L2.10468 15.3608C1.49457 14.7507 1.49457 13.7616 2.10468 13.1515L13.1515 2.1047C13.7616 1.49459 14.7507 1.49459 15.3608 2.1047L17.5702 4.31406C16.9601 4.92416 16.9601 5.91331 17.5702 6.52341ZM14.072 5.23462C13.767 4.92957 13.2724 4.92957 12.9674 5.23462L5.2346 12.9674C4.92955 13.2724 4.92955 13.767 5.2346 14.0721L10.0215 18.859C10.3266 19.164 10.8212 19.164 11.1262 18.859L18.859 11.1262C19.164 10.8212 19.164 10.3266 18.859 10.0216L14.072 5.23462Z" fill="black"/>
</svg>
