<svg width="24" height="24" viewBox="0 0 24 24" fill="none" xmlns="http://www.w3.org/2000/svg">
<path fill-rule="evenodd" clip-rule="evenodd" d="M16.5455 8.63636H19.2727L22 12.2727V16.8182H20.1818C20.1818 18.3273 18.9636 19.5455 17.4545 19.5455C15.9454 19.5455 14.7273 18.3273 14.7273 16.8182H9.2727C9.2727 18.3273 8.0545 19.5455 6.5455 19.5455C5.0364 19.5455 3.8182 18.3273 3.8182 16.8182H2V6.81818C2 5.81818 2.8182 5 3.8182 5H16.5455V8.63636ZM5.1818 16.8182C5.1818 17.5727 5.7909 18.1818 6.5455 18.1818C7.3 18.1818 7.9091 17.5727 7.9091 16.8182C7.9091 16.0636 7.3 15.4545 6.5455 15.4545C5.7909 15.4545 5.1818 16.0636 5.1818 16.8182ZM18.8182 10L20.6 12.2727H16.5455V10H18.8182ZM16.0909 16.8182C16.0909 17.5727 16.7 18.1818 17.4545 18.1818C18.2091 18.1818 18.8182 17.5727 18.8182 16.8182C18.8182 16.0636 18.2091 15.4545 17.4545 15.4545C16.7 15.4545 16.0909 16.0636 16.0909 16.8182Z" fill="#151515"/>
</svg>
