<svg width="24" height="24" viewBox="0 0 24 24" fill="none" xmlns="http://www.w3.org/2000/svg">
<path fill-rule="evenodd" clip-rule="evenodd" d="M21.375 2.625C20.9583 2.20833 20.4524 2 19.8571 2H4.14286C3.54762 2 3.04167 2.20833 2.625 2.625C2.20833 3.04167 2 3.54762 2 4.14286V19.8571C2 20.4524 2.20833 20.9583 2.625 21.375C3.04167 21.7917 3.54762 22 4.14286 22H19.8571C20.4524 22 20.9583 21.7917 21.375 21.375C21.7917 20.9583 22 20.4524 22 19.8571V4.14286C22 3.54762 21.7917 3.04167 21.375 2.625ZM19 7.43077C18.5917 8.04615 18.1104 8.56923 17.5562 9V9.36923C17.5562 10.7538 17.25 12.0923 16.6375 13.3846C15.9667 14.7692 15.0479 15.8615 13.8813 16.6615C12.5688 17.5538 11.0813 18 9.41875 18C7.81458 18 6.34167 17.5538 5 16.6615H5.7C7.0125 16.6615 8.19375 16.2308 9.24375 15.3692C8.63125 15.3692 8.07708 15.1769 7.58125 14.7923C7.08542 14.4077 6.75 13.9077 6.575 13.2923C7.04167 13.3538 7.47917 13.3385 7.8875 13.2462C7.21667 13.0923 6.6625 12.7385 6.225 12.1846C5.7875 11.6308 5.56875 10.9846 5.56875 10.2462V10.2C5.97708 10.4462 6.41458 10.5846 6.88125 10.6154C6.47292 10.3385 6.15208 9.97692 5.91875 9.53077C5.68542 9.08462 5.56875 8.59231 5.56875 8.05385C5.56875 7.51538 5.7 7.01538 5.9625 6.55385C6.69167 7.47693 7.56667 8.22308 8.5875 8.79231C9.60833 9.36154 10.7167 9.67692 11.9125 9.73846C11.7667 9.06154 11.8104 8.43846 12.0437 7.86923C12.2771 7.3 12.6344 6.84615 13.1156 6.50769C13.5969 6.16923 14.1292 6 14.7125 6C15.5292 6 16.2146 6.32308 16.7688 6.96923C17.4104 6.84615 18.0229 6.6 18.6063 6.23077C18.3729 6.93846 17.95 7.49231 17.3375 7.89231C17.8917 7.83077 18.4458 7.67692 19 7.43077Z" fill="#151515"/>
</svg>
