<svg width="24" height="24" viewBox="0 0 24 24" fill="none" xmlns="http://www.w3.org/2000/svg">
<path fill-rule="evenodd" clip-rule="evenodd" d="M8.52732 2.22265C8.04555 1.74089 7.4531 1.5 6.74999 1.5C6.04686 1.5 5.45441 1.74089 4.97264 2.22265C4.49087 2.70442 4.24999 3.29687 4.24999 4C4.24999 4.70312 4.49087 5.29556 4.97264 5.77733C5.45441 6.2591 6.04686 6.49999 6.74999 6.49999C7.4531 6.49999 8.04555 6.2591 8.52732 5.77733C9.00909 5.29556 9.24998 4.70312 9.24998 4C9.24998 3.29687 9.00909 2.70442 8.52732 2.22265ZM9.95311 7.67186C9.58853 7.30728 9.14582 7.12499 8.62499 7.12499H8.1953C7.72655 7.33332 7.24478 7.43749 6.74999 7.43749C6.2552 7.43749 5.77343 7.33332 5.30468 7.12499H4.875C4.35416 7.12499 3.91146 7.30728 3.54687 7.67186C3.18229 8.03645 3 8.47916 3 8.99999V14.3125C3 14.5729 3.09115 14.7942 3.27344 14.9765C3.45573 15.1588 3.67708 15.25 3.9375 15.25H4.5625V20.5625C4.5625 20.8229 4.65364 21.0442 4.83593 21.2265C5.01822 21.4088 5.23958 21.5 5.5 21.5H7.99999C8.2604 21.5 8.48176 21.4088 8.66405 21.2265C8.84634 21.0442 8.93749 20.8229 8.93749 20.5625V15.25H9.56248C9.8229 15.25 10.0443 15.1588 10.2265 14.9765C10.4088 14.7942 10.5 14.5729 10.5 14.3125V8.99999C10.5 8.47916 10.3177 8.03645 9.95311 7.67186Z" fill="#151515"/>
<path fill-rule="evenodd" clip-rule="evenodd" d="M18.4609 2.22265C17.9792 1.74089 17.3867 1.5 16.6836 1.5C15.9805 1.5 15.388 1.74089 14.9063 2.22265C14.4245 2.70442 14.1836 3.29687 14.1836 4C14.1836 4.70312 14.4245 5.29556 14.9063 5.77733C15.388 6.2591 15.9805 6.49999 16.6836 6.49999C17.3867 6.49999 17.9792 6.2591 18.4609 5.77733C18.9427 5.29556 19.1836 4.70312 19.1836 4C19.1836 3.29687 18.9427 2.70442 18.4609 2.22265ZM21.1758 16.1484C21.358 15.914 21.4101 15.6406 21.332 15.3281L19.457 7.82811C19.4049 7.61978 19.2943 7.45051 19.125 7.3203C18.9557 7.1901 18.7669 7.12499 18.5586 7.12499H18.1289C17.6601 7.33332 17.1784 7.43749 16.6836 7.43749C16.1888 7.43749 15.707 7.33332 15.2383 7.12499H14.8086C14.6003 7.12499 14.4115 7.1901 14.2422 7.3203C14.0729 7.45051 13.9622 7.61978 13.9102 7.82811L12.0352 15.3281C11.957 15.6406 12.0091 15.914 12.1914 16.1484C12.3737 16.3828 12.6211 16.5 12.9336 16.5H15.1211V20.5625C15.1211 20.8229 15.2122 21.0442 15.3945 21.2265C15.5768 21.4088 15.7982 21.5 16.0586 21.5H17.3086C17.569 21.5 17.7904 21.4088 17.9726 21.2265C18.1549 21.0442 18.2461 20.8229 18.2461 20.5625V16.5H20.4336C20.7461 16.5 20.9935 16.3828 21.1758 16.1484Z" fill="#151515"/>
</svg>
