<svg width="24" height="24" viewBox="0 0 24 24" fill="none" xmlns="http://www.w3.org/2000/svg">
<path fill-rule="evenodd" clip-rule="evenodd" d="M9.60741 11.4023C10.2988 11.8008 11.0547 12 11.875 12C12.6953 12 13.4511 11.8008 14.1426 11.4023C14.834 11.0039 15.3789 10.459 15.7773 9.76756C16.1757 9.07616 16.375 8.3203 16.375 7.49999C16.375 6.67968 16.1757 5.92382 15.7773 5.23242C15.3789 4.54101 14.834 3.99609 14.1426 3.59765C13.4511 3.19922 12.6953 3 11.875 3C11.0547 3 10.2988 3.19922 9.60741 3.59765C8.916 3.99609 8.37108 4.54101 7.97265 5.23242C7.57421 5.92382 7.37499 6.67968 7.37499 7.49999C7.37499 8.3203 7.57421 9.07616 7.97265 9.76756C8.37108 10.459 8.916 11.0039 9.60741 11.4023ZM17.3945 13.7578C16.6679 13.3359 15.8828 13.125 15.039 13.125H14.4414C13.6211 13.5 12.7656 13.6875 11.875 13.6875C10.9844 13.6875 10.1289 13.5 9.30858 13.125H8.71093C7.86718 13.125 7.08202 13.3359 6.35546 13.7578C5.6289 14.1797 5.05468 14.7539 4.63281 15.4804C4.21094 16.207 4 16.9922 4 17.8359V19.3125C4 19.7812 4.16406 20.1796 4.49219 20.5078C4.82031 20.8359 5.21875 21 5.6875 21H18.0625C18.5312 21 18.9296 20.8359 19.2578 20.5078C19.5859 20.1796 19.75 19.7812 19.75 19.3125V17.8359C19.75 16.9922 19.539 16.207 19.1171 15.4804C18.6953 14.7539 18.1211 14.1797 17.3945 13.7578Z" fill="#151515"/>
</svg>
