<svg width="24" height="24" viewBox="0 0 24 24" fill="none" xmlns="http://www.w3.org/2000/svg">
<path fill-rule="evenodd" clip-rule="evenodd" d="M8.87498 12.25C8.05467 12.25 7.29881 12.0508 6.60741 11.6524C5.916 11.2539 5.37108 10.709 4.97265 10.0176C4.57421 9.32619 4.37499 8.57033 4.37499 7.75002C4.37499 6.92971 4.57421 6.17385 4.97265 5.48245C5.37108 4.79104 5.916 4.24612 6.60741 3.84769C7.29881 3.44925 8.05467 3.25003 8.87498 3.25003C9.69529 3.25003 10.4511 3.44925 11.1426 3.84769C11.834 4.24612 12.3789 4.79104 12.7773 5.48245C13.1758 6.17385 13.375 6.92971 13.375 7.75002C13.375 8.57033 13.1758 9.32619 12.7773 10.0176C12.3789 10.709 11.834 11.2539 11.1426 11.6524C10.4511 12.0508 9.69529 12.25 8.87498 12.25ZM12.039 13.375C12.8828 13.375 13.6679 13.5859 14.3945 14.0078C15.1211 14.4297 15.6953 15.0039 16.1172 15.7305C16.539 16.457 16.75 17.2422 16.75 18.0859V19.5625C16.75 20.0312 16.5859 20.4297 16.2578 20.7578C15.9297 21.0859 15.5312 21.25 15.0625 21.25H2.6875C2.21875 21.25 1.82031 21.0859 1.49219 20.7578C1.16406 20.4297 1 20.0312 1 19.5625V18.0859C1 17.2422 1.21094 16.457 1.63281 15.7305C2.05468 15.0039 2.6289 14.4297 3.35546 14.0078C4.08202 13.5859 4.86718 13.375 5.71093 13.375H6.30858C7.12889 13.75 7.98436 13.9375 8.87498 13.9375C9.7656 13.9375 10.6211 13.75 11.4414 13.375H12.039ZM23.4999 9.15627C23.4999 9.03908 23.4648 8.94533 23.3945 8.87502L22.4101 7.85549C22.3164 7.78518 22.2167 7.75002 22.1113 7.75002C22.0058 7.75002 21.9062 7.78518 21.8125 7.85549L18.1211 11.5117L16.539 9.9297C16.4453 9.83595 16.3398 9.78908 16.2226 9.78908C16.1054 9.78908 16.0117 9.82423 15.9414 9.89455L14.957 10.8789C14.8632 10.9727 14.8164 11.0781 14.8164 11.1953C14.8164 11.3125 14.8632 11.4063 14.957 11.4766L17.8046 14.3594C17.8984 14.4531 18.0039 14.5 18.1211 14.5C18.2382 14.5 18.332 14.4648 18.4023 14.3945L23.3945 9.43752C23.4648 9.3672 23.4999 9.27345 23.4999 9.15627Z" fill="#151515"/>
</svg>
